<?xml version="1.0" encoding="UTF-8"?>
<!DOCTYPE svg PUBLIC "-//W3C//DTD SVG 1.1//EN" "http://www.w3.org/Graphics/SVG/1.1/DTD/svg11.dtd">
<!-- Creator: CorelDRAW 2019 (64 Bit) -->
<svg xmlns="http://www.w3.org/2000/svg" xml:space="preserve" width="198px" height="46px" version="1.1" style="shape-rendering:geometricPrecision; text-rendering:geometricPrecision; image-rendering:optimizeQuality; fill-rule:evenodd; clip-rule:evenodd"
viewBox="0 0 229.08 53.2"
 xmlns:xlink="http://www.w3.org/1999/xlink">
 <defs>
  <style type="text/css">
   <![CDATA[
    .fil0 {fill:#4B4D50;fill-rule:nonzero}
    .fil2 {fill:white;fill-rule:nonzero}
    .fil1 {fill:url(#id8);fill-rule:nonzero}
    .fil3 {fill:url(#id9);fill-rule:nonzero}
    .fil6 {fill:url(#id10);fill-rule:nonzero}
    .fil5 {fill:url(#id11);fill-rule:nonzero}
    .fil4 {fill:url(#id12);fill-rule:nonzero}
   ]]>
  </style>
     <mask id="id0">
       <pattern id="id1" patternUnits="userSpaceOnUse" patternTransform="matrix(1 0 0 1 -6.27075 -2.22391)" x="0" y="0" width="63.73" height="57.11" viewBox="67.07 20.65 63.73 57.11">
        <path id="1" class="fil2" d="M78.36 42.93c-0.72,3.24 -0.71,6.56 -0.01,9.73 -0.17,-1.57 -0.16,-3.17 0.04,-4.75 0.07,-0.59 0.17,-1.19 0.3,-1.77 0.07,-0.3 0.15,-0.61 0.25,-0.95 2.81,-10.31 13.19,-16.55 23.63,-14.21 10.74,2.41 17.52,13.12 15.11,23.86 -1.92,8.58 -9.14,14.63 -17.44,15.5 10.31,0.02 19.65,-7.1 22,-17.57 2.71,-12.09 -4.92,-24.14 -17.02,-26.86 -12.09,-2.71 -24.14,4.92 -26.86,17.02z"/>
        <path id="2" class="fil2" d="M103.91 23.52c-14.34,-3.21 -28.56,5.8 -31.78,20.13 -3.21,14.33 5.8,28.56 20.13,31.77 14.33,3.22 28.56,-5.79 31.77,-20.12 3.22,-14.34 -5.79,-28.56 -20.12,-31.78zm1.63 1.23l0 0c12.73,2.85 20.74,15.49 17.88,28.22 -2.85,12.73 -15.49,20.73 -28.22,17.88 -2.21,-0.5 -4.28,-1.29 -6.18,-2.33 -2.53,-1.29 -4.71,-3.07 -6.45,-5.2 -4.77,-5.47 -6.96,-13.07 -5.25,-20.69 2.86,-12.73 15.49,-20.74 28.22,-17.88z"/>
        <path id="3" class="fil2" d="M87.19 35.15c0.45,-0.26 0.92,-0.5 1.39,-0.72 3.59,-1.64 7.68,-1.97 11.51,-0.93 2.91,0.78 5.56,2.33 7.67,4.47 2.05,2.09 3.55,4.69 4.31,7.52 0.72,2.65 0.78,5.48 0.18,8.18 -0.06,0.27 -0.13,0.53 -0.2,0.79 -0.8,2.92 -2.37,5.57 -4.53,7.68 -2.11,2.04 -4.71,3.52 -7.54,4.27 -3.02,0.79 -6.2,0.74 -9.21,-0.16 -3.52,-1.04 -6.69,-3.26 -8.79,-6.12 0.49,0.82 1.03,1.58 1.63,2.29 1.43,1.71 3.3,3.26 5.4,4.5 1.9,1.13 4.18,1.9 6.6,2.24 3.6,0.5 7.24,-0.05 10.54,-1.58 3.24,-1.52 5.98,-3.9 7.9,-6.89 1.2,-1.86 2.06,-3.91 2.55,-6.1 0.33,-1.44 0.48,-2.91 0.46,-4.37 -0.04,-3.56 -1.1,-7.04 -3.06,-10.04 -1.96,-3.03 -4.73,-5.41 -7.99,-6.89 -3.37,-1.52 -7.22,-2.04 -10.85,-1.44 -2.88,0.47 -5.6,1.6 -7.97,3.3z"/>
       </pattern>
      <rect style="fill:url(#id1)" x="-4.42" y="-2.22" width="63.73" height="57.11"/>
     </mask>
     <mask id="id2">
       <pattern id="id3" patternUnits="userSpaceOnUse" patternTransform="matrix(1 0 0 1 -1.00093E-05 -5.12903)" x="0" y="0" width="58.33" height="58.33" viewBox="68.92 20.31 58.33 58.33">
        <path id="1" class="fil2" d="M78.36 42.93c-0.72,3.24 -0.71,6.56 -0.01,9.73 -0.17,-1.57 -0.16,-3.17 0.04,-4.75 0.07,-0.59 0.17,-1.19 0.3,-1.77 0.07,-0.3 0.15,-0.61 0.25,-0.95 2.81,-10.31 13.19,-16.55 23.63,-14.21 10.74,2.41 17.52,13.12 15.11,23.86 -1.92,8.58 -9.14,14.63 -17.44,15.5 10.31,0.02 19.65,-7.1 22,-17.57 2.71,-12.09 -4.92,-24.14 -17.02,-26.86 -12.09,-2.71 -24.14,4.92 -26.86,17.02z"/>
        <path id="2" class="fil2" d="M103.91 23.52c-14.34,-3.21 -28.56,5.8 -31.78,20.13 -3.21,14.33 5.8,28.56 20.13,31.77 14.33,3.22 28.56,-5.79 31.77,-20.12 3.22,-14.34 -5.79,-28.56 -20.12,-31.78zm1.63 1.23l0 0c12.73,2.85 20.74,15.49 17.88,28.22 -2.85,12.73 -15.49,20.73 -28.22,17.88 -2.21,-0.5 -4.28,-1.29 -6.18,-2.33 -2.53,-1.29 -4.71,-3.07 -6.45,-5.2 -4.77,-5.47 -6.96,-13.07 -5.25,-20.69 2.86,-12.73 15.49,-20.74 28.22,-17.88z"/>
        <path id="3" class="fil2" d="M87.19 35.15c0.45,-0.26 0.92,-0.5 1.39,-0.72 3.59,-1.64 7.68,-1.97 11.51,-0.93 2.91,0.78 5.56,2.33 7.67,4.47 2.05,2.09 3.55,4.69 4.31,7.52 0.72,2.65 0.78,5.48 0.18,8.18 -0.06,0.27 -0.13,0.53 -0.2,0.79 -0.8,2.92 -2.37,5.57 -4.53,7.68 -2.11,2.04 -4.71,3.52 -7.54,4.27 -3.02,0.79 -6.2,0.74 -9.21,-0.16 -3.52,-1.04 -6.69,-3.26 -8.79,-6.12 0.49,0.82 1.03,1.58 1.63,2.29 1.43,1.71 3.3,3.26 5.4,4.5 1.9,1.13 4.18,1.9 6.6,2.24 3.6,0.5 7.24,-0.05 10.54,-1.58 3.24,-1.52 5.98,-3.9 7.9,-6.89 1.2,-1.86 2.06,-3.91 2.55,-6.1 0.33,-1.44 0.48,-2.91 0.46,-4.37 -0.04,-3.56 -1.1,-7.04 -3.06,-10.04 -1.96,-3.03 -4.73,-5.41 -7.99,-6.89 -3.37,-1.52 -7.22,-2.04 -10.85,-1.44 -2.88,0.47 -5.6,1.6 -7.97,3.3z"/>
       </pattern>
      <rect style="fill:url(#id3)" width="53.2" height="53.2"/>
     </mask>
     <mask id="id4">
       <pattern id="id5" patternUnits="userSpaceOnUse" patternTransform="matrix(1 0 0 1 10.4997 8.05854)" x="0" y="0" width="35.1" height="38.41" viewBox="81.98 31.25 35.1 38.41">
        <path id="1" class="fil2" d="M78.36 42.93c-0.72,3.24 -0.71,6.56 -0.01,9.73 -0.17,-1.57 -0.16,-3.17 0.04,-4.75 0.07,-0.59 0.17,-1.19 0.3,-1.77 0.07,-0.3 0.15,-0.61 0.25,-0.95 2.81,-10.31 13.19,-16.55 23.63,-14.21 10.74,2.41 17.52,13.12 15.11,23.86 -1.92,8.58 -9.14,14.63 -17.44,15.5 10.31,0.02 19.65,-7.1 22,-17.57 2.71,-12.09 -4.92,-24.14 -17.02,-26.86 -12.09,-2.71 -24.14,4.92 -26.86,17.02z"/>
        <path id="2" class="fil2" d="M103.91 23.52c-14.34,-3.21 -28.56,5.8 -31.78,20.13 -3.21,14.33 5.8,28.56 20.13,31.77 14.33,3.22 28.56,-5.79 31.77,-20.12 3.22,-14.34 -5.79,-28.56 -20.12,-31.78zm1.63 1.23l0 0c12.73,2.85 20.74,15.49 17.88,28.22 -2.85,12.73 -15.49,20.73 -28.22,17.88 -2.21,-0.5 -4.28,-1.29 -6.18,-2.33 -2.53,-1.29 -4.71,-3.07 -6.45,-5.2 -4.77,-5.47 -6.96,-13.07 -5.25,-20.69 2.86,-12.73 15.49,-20.74 28.22,-17.88z"/>
        <path id="3" class="fil2" d="M87.19 35.15c0.45,-0.26 0.92,-0.5 1.39,-0.72 3.59,-1.64 7.68,-1.97 11.51,-0.93 2.91,0.78 5.56,2.33 7.67,4.47 2.05,2.09 3.55,4.69 4.31,7.52 0.72,2.65 0.78,5.48 0.18,8.18 -0.06,0.27 -0.13,0.53 -0.2,0.79 -0.8,2.92 -2.37,5.57 -4.53,7.68 -2.11,2.04 -4.71,3.52 -7.54,4.27 -3.02,0.79 -6.2,0.74 -9.21,-0.16 -3.52,-1.04 -6.69,-3.26 -8.79,-6.12 0.49,0.82 1.03,1.58 1.63,2.29 1.43,1.71 3.3,3.26 5.4,4.5 1.9,1.13 4.18,1.9 6.6,2.24 3.6,0.5 7.24,-0.05 10.54,-1.58 3.24,-1.52 5.98,-3.9 7.9,-6.89 1.2,-1.86 2.06,-3.91 2.55,-6.1 0.33,-1.44 0.48,-2.91 0.46,-4.37 -0.04,-3.56 -1.1,-7.04 -3.06,-10.04 -1.96,-3.03 -4.73,-5.41 -7.99,-6.89 -3.37,-1.52 -7.22,-2.04 -10.85,-1.44 -2.88,0.47 -5.6,1.6 -7.97,3.3z"/>
       </pattern>
      <rect style="fill:url(#id5)" x="10.5" y="8.73" width="35.08" height="37.73"/>
     </mask>
     <mask id="id6">
       <pattern id="id7" patternUnits="userSpaceOnUse" patternTransform="matrix(1 0 0 1 -2.04852 -2.68523)" x="0" y="0" width="55.48" height="46.72" viewBox="69.43 20.19 55.48 46.72">
        <path id="1" class="fil2" d="M78.36 42.93c-0.72,3.24 -0.71,6.56 -0.01,9.73 -0.17,-1.57 -0.16,-3.17 0.04,-4.75 0.07,-0.59 0.17,-1.19 0.3,-1.77 0.07,-0.3 0.15,-0.61 0.25,-0.95 2.81,-10.31 13.19,-16.55 23.63,-14.21 10.74,2.41 17.52,13.12 15.11,23.86 -1.92,8.58 -9.14,14.63 -17.44,15.5 10.31,0.02 19.65,-7.1 22,-17.57 2.71,-12.09 -4.92,-24.14 -17.02,-26.86 -12.09,-2.71 -24.14,4.92 -26.86,17.02z"/>
        <path id="2" class="fil2" d="M103.91 23.52c-14.34,-3.21 -28.56,5.8 -31.78,20.13 -3.21,14.33 5.8,28.56 20.13,31.77 14.33,3.22 28.56,-5.79 31.77,-20.12 3.22,-14.34 -5.79,-28.56 -20.12,-31.78zm1.63 1.23l0 0c12.73,2.85 20.74,15.49 17.88,28.22 -2.85,12.73 -15.49,20.73 -28.22,17.88 -2.21,-0.5 -4.28,-1.29 -6.18,-2.33 -2.53,-1.29 -4.71,-3.07 -6.45,-5.2 -4.77,-5.47 -6.96,-13.07 -5.25,-20.69 2.86,-12.73 15.49,-20.74 28.22,-17.88z"/>
        <path id="3" class="fil2" d="M87.19 35.15c0.45,-0.26 0.92,-0.5 1.39,-0.72 3.59,-1.64 7.68,-1.97 11.51,-0.93 2.91,0.78 5.56,2.33 7.67,4.47 2.05,2.09 3.55,4.69 4.31,7.52 0.72,2.65 0.78,5.48 0.18,8.18 -0.06,0.27 -0.13,0.53 -0.2,0.79 -0.8,2.92 -2.37,5.57 -4.53,7.68 -2.11,2.04 -4.71,3.52 -7.54,4.27 -3.02,0.79 -6.2,0.74 -9.21,-0.16 -3.52,-1.04 -6.69,-3.26 -8.79,-6.12 0.49,0.82 1.03,1.58 1.63,2.29 1.43,1.71 3.3,3.26 5.4,4.5 1.9,1.13 4.18,1.9 6.6,2.24 3.6,0.5 7.24,-0.05 10.54,-1.58 3.24,-1.52 5.98,-3.9 7.9,-6.89 1.2,-1.86 2.06,-3.91 2.55,-6.1 0.33,-1.44 0.48,-2.91 0.46,-4.37 -0.04,-3.56 -1.1,-7.04 -3.06,-10.04 -1.96,-3.03 -4.73,-5.41 -7.99,-6.89 -3.37,-1.52 -7.22,-2.04 -10.85,-1.44 -2.88,0.47 -5.6,1.6 -7.97,3.3z"/>
       </pattern>
      <rect style="fill:url(#id7)" x="-2.05" y="-2.69" width="55.49" height="46.72"/>
     </mask>
  <linearGradient id="id8" gradientUnits="userSpaceOnUse" x1="49.88" y1="5.59" x2="3.91" y2="40.32">
   <stop offset="0" style="stop-opacity:1; stop-color:#5C3C81"/>
   <stop offset="0.509804" style="stop-opacity:1; stop-color:#5781AE"/>
   <stop offset="1" style="stop-opacity:1; stop-color:#51C6DC"/>
  </linearGradient>
  <linearGradient id="id9" gradientUnits="userSpaceOnUse" x1="47.56" y1="0.18" x2="21.66" y2="33.85">
   <stop offset="0" style="stop-opacity:1; stop-color:#51C6DC"/>
   <stop offset="0.509804" style="stop-opacity:1; stop-color:#429BC6"/>
   <stop offset="1" style="stop-opacity:1; stop-color:#326FB0"/>
  </linearGradient>
  <linearGradient id="id10" gradientUnits="userSpaceOnUse" x1="36.45" y1="45.89" x2="16.86" y2="-0.01">
   <stop offset="0" style="stop-opacity:1; stop-color:white"/>
   <stop offset="0.509804" style="stop-opacity:1; stop-color:#96989A"/>
   <stop offset="1" style="stop-opacity:1; stop-color:#2D3134"/>
  </linearGradient>
  <linearGradient id="id11" gradientUnits="userSpaceOnUse" xlink:href="#id8" x1="59.59" y1="-9.83" x2="3.66" y2="55.45">
  </linearGradient>
  <linearGradient id="id12" gradientUnits="userSpaceOnUse" xlink:href="#id8" x1="0.28" y1="63.94" x2="34.76" y2="15.03">
  </linearGradient>
 </defs>
 <g id="Camada_x0020_1">
  <metadata id="CorelCorpID_0Corel-Layer"/>
  <g id="_2683049832496">
   <path class="fil0" d="M65.87 32.73l-2.57 -11.18 0 12.12c0,0.67 -0.14,1.17 -0.41,1.5 -0.27,0.34 -0.63,0.51 -1.08,0.51 -0.43,0 -0.79,-0.17 -1.07,-0.5 -0.27,-0.33 -0.41,-0.84 -0.41,-1.51l0 -13.9c0,-0.77 0.18,-1.28 0.54,-1.55 0.37,-0.27 0.86,-0.4 1.48,-0.4l1 0c0.6,0 1.04,0.06 1.31,0.18 0.27,0.12 0.48,0.33 0.61,0.64 0.13,0.32 0.28,0.82 0.44,1.53l2.33 9.62 2.32 -9.62c0.17,-0.71 0.32,-1.21 0.45,-1.53 0.13,-0.31 0.33,-0.52 0.6,-0.64 0.27,-0.12 0.71,-0.18 1.32,-0.18l1 0c0.61,0 1.11,0.13 1.47,0.4 0.36,0.27 0.54,0.78 0.54,1.55l0 13.9c0,0.67 -0.13,1.17 -0.4,1.5 -0.28,0.34 -0.64,0.51 -1.1,0.51 -0.42,0 -0.78,-0.17 -1.05,-0.51 -0.28,-0.33 -0.42,-0.83 -0.42,-1.5l0 -12.12 -2.56 11.18c-0.17,0.73 -0.3,1.26 -0.41,1.6 -0.11,0.34 -0.3,0.65 -0.58,0.93 -0.29,0.28 -0.68,0.42 -1.18,0.42 -0.38,0 -0.7,-0.09 -0.96,-0.27 -0.26,-0.18 -0.47,-0.41 -0.61,-0.69 -0.15,-0.28 -0.26,-0.59 -0.35,-0.93 -0.08,-0.34 -0.17,-0.69 -0.25,-1.06z"/>
   <path id="1" class="fil0" d="M89.31 33.39l-0.76 -2.2 -6.51 0 -0.76 2.25c-0.3,0.88 -0.55,1.47 -0.76,1.77 -0.21,0.31 -0.56,0.47 -1.04,0.47 -0.4,0 -0.76,-0.17 -1.08,-0.49 -0.31,-0.33 -0.47,-0.7 -0.47,-1.12 0,-0.24 0.04,-0.49 0.11,-0.74 0.08,-0.26 0.2,-0.61 0.36,-1.07l4.09 -11.4c0.12,-0.32 0.26,-0.71 0.42,-1.17 0.17,-0.46 0.34,-0.85 0.53,-1.15 0.18,-0.3 0.43,-0.55 0.73,-0.73 0.3,-0.19 0.67,-0.29 1.11,-0.29 0.46,0 0.83,0.1 1.14,0.29 0.3,0.18 0.54,0.43 0.73,0.72 0.18,0.29 0.34,0.61 0.46,0.95 0.13,0.34 0.29,0.8 0.49,1.36l4.18 11.33c0.32,0.86 0.49,1.49 0.49,1.88 0,0.4 -0.16,0.78 -0.46,1.12 -0.31,0.34 -0.69,0.51 -1.12,0.51 -0.26,0 -0.48,-0.05 -0.66,-0.15 -0.18,-0.1 -0.33,-0.24 -0.46,-0.41 -0.12,-0.17 -0.25,-0.44 -0.39,-0.79 -0.15,-0.35 -0.27,-0.67 -0.37,-0.94zm-6.41 -4.88l4.77 0 -2.4 -7.23 -2.37 7.23z"/>
   <path id="2" class="fil0" d="M99.49 27.88l-1.13 0 0 5.63c0,0.74 -0.15,1.29 -0.45,1.64 -0.3,0.35 -0.69,0.53 -1.17,0.53 -0.51,0 -0.92,-0.19 -1.2,-0.56 -0.28,-0.36 -0.42,-0.9 -0.42,-1.61l0 -13.51c0,-0.77 0.15,-1.32 0.47,-1.67 0.31,-0.34 0.82,-0.51 1.51,-0.51l5.27 0c0.73,0 1.35,0.03 1.87,0.1 0.51,0.07 0.98,0.21 1.39,0.41 0.5,0.24 0.95,0.57 1.33,1 0.39,0.43 0.68,0.93 0.88,1.5 0.2,0.57 0.3,1.18 0.3,1.82 0,1.31 -0.33,2.36 -1.01,3.14 -0.67,0.78 -1.69,1.34 -3.06,1.66 0.57,0.34 1.13,0.83 1.65,1.49 0.52,0.65 0.99,1.35 1.4,2.09 0.41,0.74 0.73,1.4 0.96,2 0.23,0.59 0.34,1 0.34,1.22 0,0.23 -0.06,0.46 -0.2,0.69 -0.13,0.23 -0.31,0.41 -0.55,0.54 -0.23,0.13 -0.5,0.2 -0.81,0.2 -0.36,0 -0.66,-0.1 -0.91,-0.29 -0.25,-0.18 -0.46,-0.42 -0.64,-0.71 -0.18,-0.28 -0.42,-0.71 -0.72,-1.26l-1.3 -2.38c-0.47,-0.86 -0.89,-1.52 -1.25,-1.98 -0.37,-0.46 -0.74,-0.77 -1.12,-0.93 -0.38,-0.17 -0.85,-0.25 -1.43,-0.25zm1.86 -7.39l-2.99 0 0 4.83 2.9 0c0.77,0 1.43,-0.07 1.96,-0.22 0.53,-0.14 0.94,-0.4 1.22,-0.75 0.28,-0.36 0.42,-0.85 0.42,-1.47 0,-0.49 -0.11,-0.92 -0.34,-1.29 -0.23,-0.37 -0.54,-0.65 -0.94,-0.84 -0.38,-0.17 -1.12,-0.26 -2.23,-0.26z"/>
   <path id="3" class="fil0" d="M114.47 19.68l0 6.16 6.36 -7.29c0.3,-0.35 0.56,-0.6 0.77,-0.77 0.22,-0.17 0.51,-0.26 0.86,-0.26 0.47,0 0.85,0.16 1.13,0.45 0.29,0.3 0.43,0.67 0.43,1.1 0,0.52 -0.24,1.03 -0.73,1.55l-3.93 4.09 4.53 7.14c0.32,0.49 0.56,0.92 0.72,1.3 0.16,0.36 0.24,0.73 0.24,1.08 0,0.39 -0.14,0.73 -0.42,1.02 -0.28,0.28 -0.66,0.43 -1.14,0.43 -0.45,0 -0.82,-0.11 -1.1,-0.32 -0.28,-0.21 -0.52,-0.49 -0.72,-0.84 -0.2,-0.36 -0.37,-0.67 -0.53,-0.96l-3.82 -6.47 -2.65 2.79 0 3.63c0,0.74 -0.16,1.28 -0.46,1.64 -0.31,0.35 -0.7,0.53 -1.18,0.53 -0.28,0 -0.54,-0.09 -0.79,-0.24 -0.26,-0.16 -0.46,-0.38 -0.59,-0.65 -0.11,-0.22 -0.17,-0.48 -0.19,-0.78 -0.02,-0.29 -0.03,-0.72 -0.03,-1.28l0 -13.05c0,-0.72 0.14,-1.26 0.43,-1.62 0.29,-0.36 0.68,-0.54 1.17,-0.54 0.49,0 0.88,0.18 1.18,0.54 0.3,0.35 0.46,0.9 0.46,1.62z"/>
   <path id="4" class="fil0" d="M138.28 20.57l-7.3 0 0 4.31 6.72 0c0.49,0 0.86,0.13 1.11,0.37 0.24,0.24 0.36,0.56 0.36,0.96 0,0.39 -0.12,0.72 -0.36,0.97 -0.24,0.25 -0.61,0.38 -1.11,0.38l-6.72 0 0 5 7.55 0c0.51,0 0.89,0.13 1.15,0.39 0.26,0.26 0.39,0.6 0.39,1.03 0,0.42 -0.13,0.76 -0.39,1.01 -0.26,0.26 -0.64,0.39 -1.15,0.39l-8.81 0c-0.7,0 -1.21,-0.17 -1.51,-0.51 -0.31,-0.35 -0.47,-0.9 -0.47,-1.67l0 -13.2c0,-0.51 0.07,-0.93 0.21,-1.25 0.14,-0.33 0.35,-0.56 0.65,-0.71 0.29,-0.15 0.67,-0.22 1.12,-0.22l8.56 0c0.51,0 0.9,0.13 1.15,0.37 0.25,0.26 0.37,0.59 0.37,0.99 0,0.42 -0.12,0.76 -0.37,1.01 -0.25,0.25 -0.64,0.38 -1.15,0.38z"/>
   <path id="5" class="fil0" d="M153.03 20.76l-3.53 0 0 12.75c0,0.74 -0.15,1.28 -0.45,1.64 -0.3,0.35 -0.69,0.53 -1.16,0.53 -0.48,0 -0.87,-0.18 -1.18,-0.54 -0.3,-0.36 -0.45,-0.9 -0.45,-1.63l0 -12.75 -3.53 0c-0.56,0 -0.97,-0.13 -1.24,-0.4 -0.26,-0.27 -0.4,-0.62 -0.4,-1.07 0,-0.45 0.14,-0.81 0.42,-1.07 0.28,-0.27 0.68,-0.4 1.22,-0.4l10.3 0c0.56,0 0.98,0.13 1.25,0.41 0.27,0.27 0.41,0.63 0.41,1.06 0,0.45 -0.14,0.8 -0.41,1.07 -0.28,0.27 -0.69,0.4 -1.25,0.4z"/>
   <path id="6" class="fil0" d="M162.81 28.54l-2.97 0 0 4.97c0,0.71 -0.15,1.25 -0.46,1.61 -0.3,0.37 -0.69,0.56 -1.15,0.56 -0.49,0 -0.88,-0.18 -1.18,-0.55 -0.3,-0.36 -0.45,-0.9 -0.45,-1.6l0 -13.53c0,-0.78 0.17,-1.34 0.49,-1.68 0.33,-0.33 0.85,-0.5 1.56,-0.5l4.16 0c1.23,0 2.17,0.1 2.84,0.31 0.65,0.2 1.22,0.53 1.69,0.99 0.48,0.47 0.84,1.03 1.09,1.7 0.25,0.67 0.37,1.43 0.37,2.27 0,1.79 -0.5,3.14 -1.5,4.07 -1.01,0.92 -2.5,1.38 -4.49,1.38zm-0.79 -8.05l-2.18 0 0 5.37 2.18 0c0.77,0 1.41,-0.09 1.92,-0.26 0.51,-0.18 0.9,-0.46 1.17,-0.86 0.27,-0.4 0.41,-0.93 0.41,-1.57 0,-0.78 -0.21,-1.41 -0.63,-1.9 -0.46,-0.52 -1.42,-0.78 -2.87,-0.78z"/>
   <path id="7" class="fil0" d="M174.67 19.68l0 12.78 6.57 0c0.52,0 0.93,0.14 1.21,0.42 0.28,0.28 0.42,0.63 0.42,1.06 0,0.42 -0.14,0.78 -0.42,1.04 -0.27,0.27 -0.68,0.4 -1.21,0.4l-7.82 0c-0.7,0 -1.21,-0.17 -1.52,-0.51 -0.31,-0.35 -0.46,-0.9 -0.46,-1.67l0 -13.52c0,-0.72 0.14,-1.26 0.44,-1.62 0.29,-0.36 0.68,-0.54 1.16,-0.54 0.48,0 0.88,0.18 1.18,0.54 0.3,0.35 0.45,0.9 0.45,1.62z"/>
   <path id="8" class="fil0" d="M194.94 33.39l-0.77 -2.2 -6.5 0 -0.76 2.25c-0.3,0.88 -0.55,1.47 -0.76,1.77 -0.21,0.31 -0.56,0.47 -1.04,0.47 -0.4,0 -0.77,-0.17 -1.08,-0.49 -0.31,-0.33 -0.47,-0.7 -0.47,-1.12 0,-0.24 0.04,-0.49 0.11,-0.74 0.07,-0.26 0.19,-0.61 0.36,-1.07l4.09 -11.4c0.12,-0.32 0.26,-0.71 0.42,-1.17 0.16,-0.46 0.34,-0.85 0.53,-1.15 0.18,-0.3 0.42,-0.55 0.73,-0.73 0.3,-0.19 0.67,-0.29 1.11,-0.29 0.46,0 0.83,0.1 1.13,0.29 0.31,0.18 0.55,0.43 0.73,0.72 0.19,0.29 0.35,0.61 0.47,0.95 0.13,0.34 0.29,0.8 0.49,1.36l4.17 11.33c0.33,0.86 0.5,1.49 0.5,1.88 0,0.4 -0.16,0.78 -0.47,1.12 -0.3,0.34 -0.68,0.51 -1.12,0.51 -0.25,0 -0.47,-0.05 -0.65,-0.15 -0.18,-0.1 -0.33,-0.24 -0.46,-0.41 -0.12,-0.17 -0.25,-0.44 -0.39,-0.79 -0.15,-0.35 -0.27,-0.67 -0.37,-0.94zm-6.41 -4.88l4.77 0 -2.41 -7.23 -2.36 7.23z"/>
   <path id="9" class="fil0" d="M213.84 29.83c0,0.56 -0.12,1.17 -0.37,1.82 -0.25,0.65 -0.65,1.29 -1.19,1.91 -0.53,0.63 -1.22,1.14 -2.06,1.53 -0.83,0.39 -1.81,0.59 -2.92,0.59 -0.84,0 -1.61,-0.09 -2.3,-0.26 -0.69,-0.18 -1.32,-0.45 -1.88,-0.83 -0.57,-0.36 -1.09,-0.86 -1.56,-1.46 -0.42,-0.55 -0.78,-1.17 -1.08,-1.85 -0.3,-0.68 -0.52,-1.41 -0.67,-2.19 -0.15,-0.77 -0.22,-1.59 -0.22,-2.46 0,-1.42 0.18,-2.68 0.56,-3.8 0.37,-1.12 0.91,-2.08 1.61,-2.87 0.7,-0.79 1.51,-1.4 2.45,-1.81 0.94,-0.42 1.94,-0.63 3,-0.63 1.3,0 2.45,0.29 3.46,0.85 1.01,0.57 1.78,1.27 2.32,2.11 0.54,0.83 0.81,1.62 0.81,2.36 0,0.41 -0.13,0.76 -0.39,1.08 -0.26,0.31 -0.58,0.46 -0.95,0.46 -0.41,0 -0.73,-0.11 -0.93,-0.32 -0.21,-0.22 -0.44,-0.59 -0.69,-1.11 -0.43,-0.88 -0.92,-1.53 -1.49,-1.96 -0.58,-0.43 -1.28,-0.64 -2.12,-0.64 -1.33,0 -2.39,0.55 -3.17,1.66 -0.79,1.11 -1.19,2.69 -1.19,4.73 0,1.37 0.18,2.51 0.53,3.41 0.34,0.91 0.84,1.59 1.48,2.04 0.64,0.44 1.39,0.67 2.25,0.67 0.93,0 1.71,-0.26 2.36,-0.76 0.64,-0.51 1.13,-1.26 1.45,-2.24 0.14,-0.46 0.31,-0.84 0.52,-1.13 0.2,-0.29 0.53,-0.44 0.98,-0.44 0.38,0 0.71,0.15 0.99,0.44 0.28,0.3 0.41,0.67 0.41,1.1z"/>
   <path id="10" class="fil0" d="M227.28 20.57l-7.29 0 0 4.31 6.72 0c0.49,0 0.86,0.13 1.1,0.37 0.25,0.24 0.37,0.56 0.37,0.96 0,0.39 -0.12,0.72 -0.36,0.97 -0.24,0.25 -0.61,0.38 -1.11,0.38l-6.72 0 0 5 7.54 0c0.51,0 0.9,0.13 1.15,0.39 0.26,0.26 0.4,0.6 0.4,1.03 0,0.42 -0.14,0.76 -0.4,1.01 -0.25,0.26 -0.64,0.39 -1.15,0.39l-8.8 0c-0.7,0 -1.21,-0.17 -1.52,-0.51 -0.31,-0.35 -0.46,-0.9 -0.46,-1.67l0 -13.2c0,-0.51 0.07,-0.93 0.21,-1.25 0.13,-0.33 0.35,-0.56 0.64,-0.71 0.3,-0.15 0.67,-0.22 1.13,-0.22l8.55 0c0.52,0 0.91,0.13 1.15,0.37 0.25,0.26 0.38,0.59 0.38,0.99 0,0.42 -0.13,0.76 -0.38,1.01 -0.24,0.25 -0.63,0.38 -1.15,0.38z"/>
   <g>
    <path class="fil1" d="M21.48 23.02c0.34,0.76 0.64,1.42 0.9,1.99 0.26,0.57 0.48,1.08 0.68,1.53 0.19,0.44 0.37,0.85 0.51,1.22 0.15,0.36 0.3,0.72 0.44,1.07 0.12,-0.35 0.26,-0.7 0.41,-1.06 0.15,-0.36 0.32,-0.76 0.51,-1.22 0.2,-0.45 0.42,-0.96 0.68,-1.52 0.26,-0.57 0.56,-1.22 0.9,-1.98l2.51 -5.52c0.28,-0.62 0.64,-1.12 1.07,-1.5 0.42,-0.37 0.96,-0.56 1.6,-0.56 0.61,0 1.16,0.22 1.65,0.65 0.49,0.44 0.85,1.11 1.07,2.02l3.95 17.08 -4.82 0 -1.48 -6.77c-0.25,-1.1 -0.46,-2.07 -0.63,-2.9 -0.17,-0.83 -0.32,-1.65 -0.44,-2.44 -0.27,0.68 -0.56,1.43 -0.89,2.25 -0.33,0.82 -0.76,1.86 -1.29,3.12l-2.11 4.88c-0.2,0.49 -0.41,0.87 -0.62,1.15 -0.21,0.28 -0.42,0.5 -0.64,0.66 -0.22,0.15 -0.46,0.25 -0.71,0.3 -0.25,0.05 -0.52,0.07 -0.82,0.07 -0.29,0 -0.57,-0.02 -0.82,-0.07 -0.25,-0.05 -0.48,-0.15 -0.7,-0.3 -0.22,-0.16 -0.43,-0.38 -0.64,-0.66 -0.21,-0.28 -0.42,-0.66 -0.62,-1.15l-2.11 -4.91c-0.28,-0.65 -0.53,-1.25 -0.75,-1.77 -0.22,-0.52 -0.42,-0.99 -0.6,-1.41 -0.18,-0.41 -0.33,-0.8 -0.47,-1.14 -0.13,-0.35 -0.26,-0.69 -0.38,-1.02 -0.13,0.77 -0.28,1.58 -0.45,2.42 -0.17,0.85 -0.37,1.82 -0.61,2.92l-1.47 6.77 -4.76 0 4.06 -17.08c0.21,-0.91 0.57,-1.58 1.07,-2.02 0.5,-0.43 1.06,-0.65 1.67,-0.65 0.62,0 1.15,0.18 1.58,0.55 0.43,0.37 0.78,0.87 1.06,1.51l2.51 5.49z"/>
    <path id="3" class="fil3" style="mask:url(#id0)" d="M6.88 20.06c-0.73,3.23 -0.71,6.56 -0.01,9.73 -0.18,-1.57 -0.17,-3.17 0.04,-4.76 0.07,-0.59 0.17,-1.18 0.3,-1.77 0.07,-0.3 0.15,-0.61 0.24,-0.94 2.82,-10.31 13.2,-16.55 23.63,-14.21 10.75,2.41 17.53,13.11 15.12,23.86 -1.93,8.58 -9.14,14.63 -17.44,15.49 10.31,0.03 19.64,-7.09 21.99,-17.56 2.72,-12.1 -4.92,-24.14 -17.01,-26.86 -12.1,-2.71 -24.15,4.92 -26.86,17.02zm25.54 -19.41c-14.33,-3.21 -28.55,5.8 -31.77,20.13 -3.21,14.33 5.8,28.55 20.13,31.77 14.33,3.22 28.55,-5.8 31.77,-20.13 3.22,-14.33 -5.8,-28.55 -20.13,-31.77zm1.64 1.22l0 0c12.73,2.86 20.74,15.5 17.88,28.23 -2.86,12.73 -15.49,20.73 -28.22,17.88 -2.22,-0.5 -4.29,-1.29 -6.18,-2.33 -2.53,-1.29 -4.71,-3.07 -6.46,-5.2 -4.76,-5.48 -6.95,-13.07 -5.24,-20.7 2.86,-12.73 15.49,-20.73 28.22,-17.88zm-18.35 10.4c0.45,-0.26 0.91,-0.49 1.39,-0.71 3.59,-1.64 7.67,-1.97 11.5,-0.94 2.91,0.79 5.57,2.34 7.67,4.48 2.06,2.09 3.55,4.69 4.32,7.51 0.72,2.65 0.78,5.49 0.17,8.19 -0.06,0.27 -0.12,0.53 -0.19,0.79 -0.81,2.92 -2.37,5.57 -4.54,7.67 -2.1,2.05 -4.71,3.52 -7.54,4.27 -3.01,0.8 -6.19,0.75 -9.21,-0.15 -3.51,-1.05 -6.68,-3.26 -8.78,-6.12 0.48,0.81 1.03,1.58 1.63,2.29 1.43,1.7 3.3,3.26 5.4,4.5 1.9,1.12 4.18,1.9 6.6,2.23 3.6,0.5 7.24,-0.04 10.53,-1.58 3.25,-1.51 5.98,-3.89 7.91,-6.88 1.2,-1.86 2.06,-3.91 2.55,-6.1 0.32,-1.44 0.48,-2.91 0.46,-4.37 -0.04,-3.57 -1.1,-7.04 -3.06,-10.05 -1.97,-3.02 -4.73,-5.4 -8,-6.88 -3.36,-1.53 -7.22,-2.04 -10.84,-1.45 -2.89,0.47 -5.61,1.6 -7.97,3.3z"/>
    <path id="3" class="fil4" style="mask:url(#id2)" d="M32.42 0.65c-14.33,-3.21 -28.55,5.8 -31.77,20.13 -3.21,14.33 5.8,28.55 20.13,31.77 14.33,3.22 28.55,-5.8 31.77,-20.13 3.22,-14.33 -5.8,-28.55 -20.13,-31.77zm1.64 1.22l0 0c12.73,2.86 20.74,15.5 17.88,28.23 -2.86,12.73 -15.49,20.73 -28.22,17.88 -2.22,-0.5 -4.29,-1.29 -6.18,-2.33 -2.53,-1.29 -4.71,-3.07 -6.46,-5.2 -4.76,-5.48 -6.95,-13.07 -5.24,-20.7 2.86,-12.73 15.49,-20.73 28.22,-17.88z"/>
    <path id="3" class="fil5" style="mask:url(#id4)" d="M15.71 12.27c0.45,-0.26 0.91,-0.49 1.39,-0.71 3.59,-1.64 7.67,-1.97 11.5,-0.94 2.91,0.79 5.57,2.34 7.67,4.48 2.06,2.09 3.55,4.69 4.32,7.51 0.72,2.65 0.78,5.49 0.17,8.19 -0.06,0.27 -0.12,0.53 -0.19,0.79 -0.81,2.92 -2.37,5.57 -4.54,7.67 -2.1,2.05 -4.71,3.52 -7.54,4.27 -3.01,0.8 -6.19,0.75 -9.21,-0.15 -3.51,-1.05 -6.68,-3.26 -8.78,-6.12 0.48,0.81 1.03,1.58 1.63,2.29 1.43,1.7 3.3,3.26 5.4,4.5 1.9,1.12 4.18,1.9 6.6,2.23 3.6,0.5 7.24,-0.04 10.53,-1.58 3.25,-1.51 5.98,-3.89 7.91,-6.88 1.2,-1.86 2.06,-3.91 2.55,-6.1 0.32,-1.44 0.48,-2.91 0.46,-4.37 -0.04,-3.57 -1.1,-7.04 -3.06,-10.05 -1.97,-3.02 -4.73,-5.4 -8,-6.88 -3.36,-1.53 -7.22,-2.04 -10.84,-1.45 -2.89,0.47 -5.61,1.6 -7.97,3.3z"/>
    <path id="3" class="fil6" style="mask:url(#id6)" d="M4.22 40.96c1.28,-1.33 2.71,-2.7 4.3,-4.08 -2.93,-4.98 -4.05,-11.04 -2.68,-17.13 2.86,-12.73 15.49,-20.73 28.22,-17.88l0 0c8.01,1.8 14.14,7.47 16.88,14.59l0.23 -0.05c-3.21,-7.71 -9.98,-13.79 -18.75,-15.76 -14.33,-3.21 -28.55,5.8 -31.77,20.13 -1.62,7.22 -0.14,14.41 3.57,20.18zm35.3 -21.23c1.21,-0.4 2.45,-0.79 3.74,-1.19 -0.23,-0.42 -0.48,-0.83 -0.74,-1.24 -1.97,-3.02 -4.73,-5.4 -8,-6.88 -3.36,-1.53 -7.22,-2.04 -10.84,-1.45 -2.89,0.47 -5.61,1.6 -7.97,3.3 0.45,-0.26 0.91,-0.49 1.39,-0.71 3.59,-1.64 7.67,-1.97 11.5,-0.94 2.91,0.79 5.57,2.34 7.67,4.48 1.34,1.35 2.43,2.92 3.25,4.63zm4.81 -1.52c1.72,-0.52 3.55,-1.02 5.4,-1.47 -2.65,-6.69 -8.45,-12.01 -15.99,-13.7 -12.1,-2.71 -24.15,4.92 -26.86,17.02 -0.73,3.23 -0.71,6.56 -0.01,9.73 -0.18,-1.57 -0.17,-3.17 0.04,-4.76 0.07,-0.59 0.17,-1.18 0.3,-1.77 0.07,-0.3 0.15,-0.61 0.24,-0.94 2.82,-10.31 13.2,-16.55 23.63,-14.21 5.9,1.32 10.61,5.15 13.25,10.1z"/>
   </g>
  </g>
 </g>
</svg>
